<svg width="43" height="43" viewBox="0 0 43 43" fill="none" xmlns="http://www.w3.org/2000/svg">
<path d="M28.7046 17.8944C30.7431 17.8944 32.4011 16.2365 32.4011 14.1979C32.4011 12.1593 30.7431 10.5014 28.7046 10.5014C26.666 10.5014 25.0081 12.1593 25.0081 14.1979C25.0081 16.2365 26.666 17.8944 28.7046 17.8944ZM28.7046 12.0873C29.8679 12.0873 30.8152 13.0335 30.8152 14.1979C30.8152 15.3623 29.869 16.3085 28.7046 16.3085C27.5401 16.3085 26.594 15.3623 26.594 14.1979C26.594 13.0335 27.5401 12.0873 28.7046 12.0873Z" fill="url(#paint0_linear_2784_11599)"/>
<path d="M33.4309 3.62232C32.6643 3.10838 31.8611 2.64497 31.0289 2.2321C28.156 0.806394 24.9229 0 21.5038 0C9.64661 0 0 9.64661 0 21.5038C0 33.361 9.64661 43.0076 21.5038 43.0076C25.4369 43.0076 29.1237 41.941 32.2998 40.0896C33.103 39.6208 33.8728 39.1036 34.6061 38.5381C39.71 34.6029 43.0076 28.4323 43.0076 21.5038C43.0076 14.056 39.2004 7.48226 33.432 3.62232H33.4309ZM2.4138 22.8048H20.4114C20.9856 29.4312 24.5713 35.206 29.7957 38.7456C27.2851 39.9584 24.4735 40.6422 21.5038 40.6422C11.3884 40.6422 3.0858 32.7525 2.41488 22.8048H2.4138ZM32.2138 37.3575C32.1826 37.3779 32.1503 37.3962 32.1192 37.4166C26.9884 34.3835 23.3951 29.0269 22.7876 22.8048H38.0886C38.6671 22.8048 39.1369 22.2758 39.1369 21.6221C39.1369 20.9684 38.6681 20.4394 38.0886 20.4394H14.4355V15.9236C14.4355 15.2699 13.9065 14.7409 13.2528 14.7409C12.5991 14.7409 12.0701 15.2699 12.0701 15.9236V20.4394H2.39552C2.61701 16.4106 4.09433 12.712 6.43717 9.72295H11.1841L5.34262 16.4203C4.91362 16.9128 4.96415 17.66 5.45659 18.089C5.68131 18.2847 5.95763 18.3804 6.23395 18.3804C6.56404 18.3804 6.89197 18.2428 7.12529 17.975L13.2517 10.9508L19.3782 17.975C19.6115 18.2428 19.9394 18.3804 20.2695 18.3804C20.5447 18.3804 20.8221 18.2847 21.0469 18.089C21.5393 17.66 21.5898 16.9128 21.1608 16.4203L15.3193 9.72295H20.2921C20.9458 9.72295 21.4748 9.19396 21.4748 8.54024C21.4748 7.88653 20.9458 7.35753 20.2921 7.35753H8.62733C12.0292 4.25776 16.5493 2.36542 21.5038 2.36542C24.0574 2.36542 26.4938 2.87184 28.7226 3.7836C29.5505 4.12229 30.3494 4.51796 31.1149 4.96416C36.807 8.28435 40.6422 14.4527 40.6422 21.5038C40.6422 28.0915 37.2962 33.9126 32.2138 37.3575Z" fill="url(#paint1_linear_2784_11599)"/>
<defs>
<linearGradient id="paint0_linear_2784_11599" x1="31.1581" y1="17.3235" x2="26.5768" y2="11.4863" gradientUnits="userSpaceOnUse">
<stop stop-color="#F39E51"/>
<stop offset="1" stop-color="#F16822"/>
</linearGradient>
<linearGradient id="paint1_linear_2784_11599" x1="6.30599" y1="6.11998" x2="59.1742" y2="59.643" gradientUnits="userSpaceOnUse">
<stop stop-color="#00C853"/>
<stop offset="1" stop-color="#9BD95B"/>
</linearGradient>
</defs>
</svg>
