<svg width="160" height="44" viewBox="0 0 160 44" fill="none" xmlns="http://www.w3.org/2000/svg">
<path d="M28.7046 18.3906C30.7431 18.3906 32.4011 16.7327 32.4011 14.6941C32.4011 12.6555 30.7431 10.9976 28.7046 10.9976C26.666 10.9976 25.0081 12.6555 25.0081 14.6941C25.0081 16.7327 26.666 18.3906 28.7046 18.3906ZM28.7046 12.5835C29.8679 12.5835 30.8152 13.5297 30.8152 14.6941C30.8152 15.8585 29.869 16.8047 28.7046 16.8047C27.5401 16.8047 26.594 15.8585 26.594 14.6941C26.594 13.5297 27.5401 12.5835 28.7046 12.5835Z" fill="url(#paint0_linear_2784_674)"/>
<path d="M33.4309 4.11851C32.6643 3.60457 31.8611 3.14116 31.0289 2.72829C28.156 1.30258 24.9229 0.496189 21.5038 0.496189C9.64661 0.496189 0 10.1428 0 22C0 33.8572 9.64661 43.5038 21.5038 43.5038C25.4369 43.5038 29.1237 42.4372 32.2998 40.5857C33.103 40.117 33.8728 39.5998 34.6061 39.0342C39.71 35.0991 43.0076 28.9285 43.0076 22C43.0076 14.5522 39.2004 7.97845 33.432 4.11851H33.4309ZM2.4138 23.301H20.4114C20.9856 29.9274 24.5713 35.7022 29.7957 39.2418C27.2851 40.4546 24.4735 41.1384 21.5038 41.1384C11.3884 41.1384 3.0858 33.2487 2.41488 23.301H2.4138ZM32.2138 37.8537C32.1826 37.8741 32.1503 37.8924 32.1192 37.9128C26.9884 34.8797 23.3951 29.5231 22.7876 23.301H38.0886C38.6671 23.301 39.1369 22.772 39.1369 22.1183C39.1369 21.4646 38.6681 20.9356 38.0886 20.9356H14.4355V16.4198C14.4355 15.7661 13.9065 15.2371 13.2528 15.2371C12.5991 15.2371 12.0701 15.7661 12.0701 16.4198V20.9356H2.39552C2.61701 16.9068 4.09433 13.2082 6.43717 10.2191H11.1841L5.34262 16.9165C4.91362 17.4089 4.96415 18.1562 5.45659 18.5852C5.68131 18.7809 5.95763 18.8766 6.23395 18.8766C6.56404 18.8766 6.89197 18.739 7.12529 18.4712L13.2517 11.447L19.3782 18.4712C19.6115 18.739 19.9394 18.8766 20.2695 18.8766C20.5447 18.8766 20.8221 18.7809 21.0469 18.5852C21.5393 18.1562 21.5898 17.4089 21.1608 16.9165L15.3193 10.2191H20.2921C20.9458 10.2191 21.4748 9.69015 21.4748 9.03643C21.4748 8.38272 20.9458 7.85372 20.2921 7.85372H8.62733C12.0292 4.75395 16.5493 2.86161 21.5038 2.86161C24.0574 2.86161 26.4938 3.36803 28.7226 4.27979C29.5505 4.61848 30.3494 5.01414 31.1149 5.46035C36.807 8.78054 40.6422 14.9489 40.6422 22C40.6422 28.5877 37.2962 34.4088 32.2138 37.8537Z" fill="url(#paint1_linear_2784_674)"/>
<path d="M47.0076 20.9839V18.1132H58.9099V15.4359H62.4903V18.1132H73.9733C74.5217 18.1132 74.7152 18.5647 74.7152 19.5647C74.7152 20.6936 74.4572 20.9839 73.9733 20.9839H47.0076ZM58.4906 10.3073H51.0718V7.3075H69.7478C70.2962 7.3075 70.522 7.79133 70.522 8.82351C70.522 9.85569 70.2962 10.3073 69.7478 10.3073H62.9096C64.0063 12.5329 68.3286 13.7909 70.78 14.2425C71.2316 14.3392 71.2961 14.5005 70.9736 15.5327C70.651 16.5649 70.4252 16.7584 69.9414 16.7262C67.7157 16.5326 62.5548 14.8553 60.8453 12.2426C59.0712 14.7586 54.4586 16.3391 51.3621 16.7907C50.8783 16.8552 50.588 16.7584 50.3299 15.7585C50.0396 14.6941 49.8461 14.2102 50.2977 14.1457C53.0071 13.6941 57.3294 12.4684 58.4906 10.3073ZM50.6202 27.0157V24.1127H59.168V21.8548H62.7484V24.1127H70.8445C71.3929 24.1127 71.5864 24.5643 71.5864 25.5642C71.5864 26.6932 71.3284 27.0157 70.8445 27.0157H50.6202ZM60.9743 27.9834C65.3933 27.9834 68.2318 29.7897 68.2318 32.7895C68.2318 35.7893 65.3933 37.5634 60.9743 37.5634C56.5553 37.5634 53.7168 35.7893 53.7168 32.7895C53.7168 29.7897 56.5553 27.9834 60.9743 27.9834ZM60.942 30.6606C58.4584 30.6606 57.1359 31.3703 57.1359 32.7895C57.1359 34.2088 58.4584 34.8861 60.942 34.8861C63.4257 34.8861 64.8127 34.2088 64.8127 32.7895C64.8127 31.3703 63.4902 30.6606 60.942 30.6606Z" fill="#00C149"/>
<path d="M76.3604 25.1127V22.0161H103.326C103.874 22.0161 104.068 22.5322 104.068 23.5321C104.068 24.6611 103.81 25.1127 103.326 25.1127H76.3604ZM84.1017 36.5634C83.3921 36.5634 82.3277 35.8216 81.6503 35.1119C81.0052 34.4668 80.3923 33.5314 80.3923 32.9508V27.1125H83.9727V32.3702C83.9727 33.0798 84.3598 33.4346 84.9726 33.4346H99.2619C99.8103 33.4346 100.036 34.0152 100.036 35.0152C100.036 36.1441 99.7457 36.5634 99.2619 36.5634H84.1017ZM90.069 6.43661C94.359 6.43661 97.7782 8.9203 97.7782 13.049C97.7782 17.1778 94.3268 19.6615 90.0368 19.6615C85.7468 19.6615 82.3277 17.1778 82.3277 13.049C82.3277 8.9203 85.779 6.43661 90.069 6.43661ZM90.069 9.40413C87.4563 9.40413 85.8758 10.8879 85.8758 13.049C85.8758 15.2102 87.4563 16.6939 90.069 16.6939C92.6817 16.6939 94.23 15.3069 94.23 13.049C94.23 10.7911 92.6172 9.40413 90.069 9.40413Z" fill="#00C149"/>
<path d="M107.294 29.1446C106.616 28.1769 106.294 27.8221 106.778 27.4673C109.842 25.2739 112.584 22.7257 113.842 20.4678H107.262V17.339H115.132C115.616 16.1133 115.777 14.6618 115.777 14.0167C115.777 13.2748 115.551 12.8555 114.777 12.8555H107.294V9.72667H115.583C116.39 9.72667 117.132 10.5008 118.003 11.6297C118.809 12.6942 119.164 13.5328 119.164 14.1134C119.164 14.9844 119.035 16.0165 118.809 17.0487H121.615V7.82358H125.131V33.7249C125.131 34.2087 124.615 34.4668 123.389 34.4668C122.164 34.4668 121.615 34.2087 121.615 33.7249V20.1775H117.777C117.487 20.8549 117.164 21.5 116.809 22.0806C114.938 25.1126 112.003 27.9189 108.907 29.9833C108.455 30.3058 108.068 30.2736 107.294 29.1446ZM127.97 7.50103H131.518V34.0475C131.518 34.5313 130.969 34.7894 129.744 34.7894C128.518 34.7894 127.97 34.5313 127.97 34.0475V7.50103Z" fill="#00C149"/>
<path d="M143.483 10.017C147.644 10.017 150.805 12.4362 151.547 16.3713H155.934V7.50103H159.514V34.0475C159.514 34.5636 158.773 34.7894 157.74 34.7894C156.708 34.7894 155.934 34.5636 155.934 34.0475V19.5001H151.644C151.128 23.8547 147.87 26.5319 143.483 26.5319C138.677 26.5319 135.226 23.3386 135.226 18.2744C135.226 13.2103 138.677 10.017 143.483 10.017ZM143.483 13.1458C140.742 13.1458 138.774 15.0811 138.774 18.2744C138.774 21.4677 140.742 23.4031 143.483 23.4031C146.225 23.4031 148.193 21.4677 148.193 18.2744C148.193 15.0811 146.225 13.1458 143.483 13.1458Z" fill="#00C149"/>
<defs>
<linearGradient id="paint0_linear_2784_674" x1="31.1581" y1="17.8197" x2="26.5768" y2="11.9825" gradientUnits="userSpaceOnUse">
<stop stop-color="#F39E51"/>
<stop offset="1" stop-color="#F16822"/>
</linearGradient>
<linearGradient id="paint1_linear_2784_674" x1="6.30599" y1="6.61617" x2="59.1742" y2="60.1392" gradientUnits="userSpaceOnUse">
<stop stop-color="#00C853"/>
<stop offset="1" stop-color="#9BD95B"/>
</linearGradient>
</defs>
</svg>
